g default
v -63 0 -63
v -84 0 -63
v -84 0 -84
v -63 0 -84
v -63 0 -42
v -84 0 -42
v -42 0 -63
v -42 0 -84
v -63 0 -21
v -84 0 -21
v -42 0 -42
v -21 0 -63
v -21 0 -84
v -63 0 0
v -84 0 0
v -84 0 21
v -42 0 -21
v -21 0 -42
v 0 0 -63
v 0 0 -84
v 21 0 -84
v -63 0 21
v -84 0 42
v -42 0 0
v -21 0 -21
v 0 0 -42
v 21 0 -63
v 42 0 -84
v -63 0 42
v -84 0 63
v -42 0 21
v -21 0 0
v 0 0 0
v 42 0 -63
v 63 0 -84
v -63 0 63
v -84 0 84
v -63 0 84
v -21 0 21
v -42 0 42
v -42 0 63
v -42 0 84
v -21 0 42
v -21 0 63
v -21 0 84
v 0 0 21
v 0 0 42
v 0 0 63
v 0 0 84
v 21 0 84
v 21 0 63
v 42 0 84
v 21 0 42
v 42 0 63
v 63 0 84
v 21 0 21
v 42 0 42
v 63 0 63
v 84 0 84
v 84 0 63
v 63 0 42
v 84 0 42
v 42 0 21
v 63 0 21
v 84 0 21
v 21 0 0
v 42 0 0
v 63 0 0
v 84 0 0
v 84 0 -21
v 63 0 -21
v 84 0 -42
v 42 0 -21
v 63 0 -42
v 84 0 -63
v 21 0 -21
v 42 0 -42
v 63 0 -63
v 84 0 -84
v 21 0 -42
v 0 0 -21
vt 0.125 0.875
vt 0 0.875
vt 0 1
vt 0.125 1
vt 0.125 0.75
vt 0 0.75
vt 0.25 0.875
vt 0.25 1
vt 0.125 0.625
vt 0 0.625
vt 0.25 0.75
vt 0.375 0.875
vt 0.375 1
vt 0.125 0.5
vt 0 0.5
vt 0 0.375
vt 0.25 0.625
vt 0.375 0.75
vt 0.5 0.875
vt 0.5 1
vt 0.625 1
vt 0.125 0.375
vt 0 0.25
vt 0.25 0.5
vt 0.375 0.625
vt 0.5 0.75
vt 0.625 0.875
vt 0.75 1
vt 0.125 0.25
vt 0 0.125
vt 0.25 0.375
vt 0.375 0.5
vt 0.5 0.5
vt 0.75 0.875
vt 0.875 1
vt 0.125 0.125
vt 0 0
vt 0.125 0
vt 0.375 0.375
vt 0.25 0.25
vt 0.25 0.125
vt 0.25 0
vt 0.375 0.25
vt 0.375 0.125
vt 0.375 0
vt 0.5 0.375
vt 0.5 0.25
vt 0.5 0.125
vt 0.5 0
vt 0.625 0
vt 0.625 0.125
vt 0.75 0
vt 0.625 0.25
vt 0.75 0.125
vt 0.875 0
vt 0.625 0.375
vt 0.75 0.25
vt 0.875 0.125
vt 1 0
vt 1 0.125
vt 0.875 0.25
vt 1 0.25
vt 0.75 0.375
vt 0.875 0.375
vt 1 0.375
vt 0.625 0.5
vt 0.75 0.5
vt 0.875 0.5
vt 1 0.5
vt 1 0.625
vt 0.875 0.625
vt 1 0.75
vt 0.75 0.625
vt 0.875 0.75
vt 1 0.875
vt 0.625 0.625
vt 0.75 0.75
vt 0.875 0.875
vt 1 1
vt 0.625 0.75
vt 0.5 0.625
vn 0 1 0
vn 0 1 0
vn 0 1 0
vn 0 1 0
vn 0 1 0
vn 0 1 0
vn 0 1 0
vn 0 1 0
vn 0 1 0
vn 0 1 0
vn 0 1 0
vn 0 1 0
vn 0 1 0
vn 0 1 0
vn 0 1 0
vn 0 1 0
vn 0 1 0
vn 0 1 0
vn 0 1 0
vn 0 1 0
vn 0 1 0
vn 0 1 0
vn 0 1 0
vn 0 1 0
vn 0 1 0
vn 0 1 0
vn 0 1 0
vn 0 1 0
vn 0 1 0
vn 0 1 0
vn 0 1 0
vn 0 1 0
vn 0 1 0
vn 0 1 0
vn 0 1 0
vn 0 1 0
vn 0 1 0
vn 0 1 0
vn 0 1 0
vn 0 1 0
vn 0 1 0
vn 0 1 0
vn 0 1 0
vn 0 1 0
vn 0 1 0
vn 0 1 0
vn 0 1 0
vn 0 1 0
vn 0 1 0
vn 0 1 0
vn 0 1 0
vn 0 1 0
vn 0 1 0
vn 0 1 0
vn 0 1 0
vn 0 1 0
vn 0 1 0
vn 0 1 0
vn 0 1 0
vn 0 1 0
vn 0 1 0
vn 0 1 0
vn 0 1 0
vn 0 1 0
vn 0 1 0
vn 0 1 0
vn 0 1 0
vn 0 1 0
vn 0 1 0
vn 0 1 0
vn 0 1 0
vn 0 1 0
vn 0 1 0
vn 0 1 0
vn 0 1 0
vn 0 1 0
vn 0 1 0
vn 0 1 0
vn 0 1 0
vn 0 1 0
vn 0 1 0
g default_0
f 3/3/3 2/2/2 1/1/1
f 4/4/4 3/3/3 1/1/1
f 1/1/1 2/2/2 5/5/5
f 2/2/2 6/6/6 5/5/5
f 4/4/4 1/1/1 7/7/7
f 8/8/8 4/4/4 7/7/7
f 5/5/5 6/6/6 9/9/9
f 6/6/6 10/10/10 9/9/9
f 1/1/1 5/5/5 11/11/11
f 7/7/7 1/1/1 11/11/11
f 8/8/8 7/7/7 12/12/12
f 13/13/13 8/8/8 12/12/12
f 9/9/9 10/10/10 14/14/14
f 10/10/10 15/15/15 14/14/14
f 15/15/15 16/16/16 14/14/14
f 5/5/5 9/9/9 17/17/17
f 11/11/11 5/5/5 17/17/17
f 7/7/7 11/11/11 18/18/18
f 12/12/12 7/7/7 18/18/18
f 13/13/13 12/12/12 19/19/19
f 20/20/20 13/13/13 19/19/19
f 21/21/21 20/20/20 19/19/19
f 16/16/16 22/22/22 14/14/14
f 16/16/16 23/23/23 22/22/22
f 9/9/9 14/14/14 24/24/24
f 17/17/17 9/9/9 24/24/24
f 14/14/14 22/22/22 24/24/24
f 11/11/11 17/17/17 25/25/25
f 18/18/18 11/11/11 25/25/25
f 12/12/12 18/18/18 26/26/26
f 19/19/19 12/12/12 26/26/26
f 27/27/27 21/21/21 19/19/19
f 27/27/27 19/19/19 26/26/26
f 28/28/28 21/21/21 27/27/27
f 23/23/23 29/29/29 22/22/22
f 23/23/23 30/30/30 29/29/29
f 22/22/22 31/31/31 24/24/24
f 22/22/22 29/29/29 31/31/31
f 17/17/17 24/24/24 32/32/32
f 24/24/24 31/31/31 32/32/32
f 25/25/25 17/17/17 32/32/32
f 25/25/25 32/32/32 33/33/33
f 34/34/34 28/28/28 27/27/27
f 35/35/35 28/28/28 34/34/34
f 30/30/30 36/36/36 29/29/29
f 30/30/30 37/37/37 36/36/36
f 37/37/37 38/38/38 36/36/36
f 31/31/31 39/39/39 32/32/32
f 32/32/32 39/39/39 33/33/33
f 29/29/29 40/40/40 31/31/31
f 29/29/29 36/36/36 40/40/40
f 31/31/31 40/40/40 39/39/39
f 36/36/36 38/38/38 41/41/41
f 36/36/36 41/41/41 40/40/40
f 38/38/38 42/42/42 41/41/41
f 40/40/40 43/43/43 39/39/39
f 40/40/40 41/41/41 43/43/43
f 41/41/41 42/42/42 44/44/44
f 41/41/41 44/44/44 43/43/43
f 42/42/42 45/45/45 44/44/44
f 39/39/39 43/43/43 46/46/46
f 39/39/39 46/46/46 33/33/33
f 43/43/43 44/44/44 47/47/47
f 43/43/43 47/47/47 46/46/46
f 44/44/44 45/45/45 48/48/48
f 44/44/44 48/48/48 47/47/47
f 45/45/45 49/49/49 48/48/48
f 49/49/49 50/50/50 48/48/48
f 50/50/50 51/51/51 48/48/48
f 48/48/48 51/51/51 47/47/47
f 50/50/50 52/52/52 51/51/51
f 47/47/47 53/53/53 46/46/46
f 51/51/51 53/53/53 47/47/47
f 52/52/52 54/54/54 51/51/51
f 51/51/51 54/54/54 53/53/53
f 52/52/52 55/55/55 54/54/54
f 53/53/53 56/56/56 46/46/46
f 46/46/46 56/56/56 33/33/33
f 54/54/54 57/57/57 53/53/53
f 53/53/53 57/57/57 56/56/56
f 55/55/55 58/58/58 54/54/54
f 54/54/54 58/58/58 57/57/57
f 55/55/55 59/59/59 58/58/58
f 59/59/59 60/60/60 58/58/58
f 58/58/58 60/60/60 61/61/61
f 58/58/58 61/61/61 57/57/57
f 60/60/60 62/62/62 61/61/61
f 57/57/57 63/63/63 56/56/56
f 57/57/57 61/61/61 63/63/63
f 61/61/61 62/62/62 64/64/64
f 61/61/61 64/64/64 63/63/63
f 62/62/62 65/65/65 64/64/64
f 56/56/56 63/63/63 66/66/66
f 56/56/56 66/66/66 33/33/33
f 63/63/63 64/64/64 67/67/67
f 63/63/63 67/67/67 66/66/66
f 64/64/64 65/65/65 68/68/68
f 64/64/64 68/68/68 67/67/67
f 65/65/65 69/69/69 68/68/68
f 69/69/69 70/70/70 68/68/68
f 70/70/70 71/71/71 68/68/68
f 68/68/68 71/71/71 67/67/67
f 70/70/70 72/72/72 71/71/71
f 67/67/67 73/73/73 66/66/66
f 71/71/71 73/73/73 67/67/67
f 72/72/72 74/74/74 71/71/71
f 71/71/71 74/74/74 73/73/73
f 72/72/72 75/75/75 74/74/74
f 66/66/66 76/76/76 33/33/33
f 73/73/73 76/76/76 66/66/66
f 74/74/74 77/77/77 73/73/73
f 73/73/73 77/77/77 76/76/76
f 75/75/75 78/78/78 74/74/74
f 74/74/74 78/78/78 77/77/77
f 75/75/75 79/79/79 78/78/78
f 79/79/79 35/35/35 78/78/78
f 78/78/78 35/35/35 34/34/34
f 78/78/78 34/34/34 77/77/77
f 77/77/77 34/34/34 80/80/80
f 77/77/77 80/80/80 76/76/76
f 34/34/34 27/27/27 80/80/80
f 80/80/80 27/27/27 26/26/26
f 76/76/76 81/81/81 33/33/33
f 76/76/76 80/80/80 81/81/81
f 80/80/80 26/26/26 81/81/81
f 81/81/81 25/25/25 33/33/33
f 26/26/26 18/18/18 81/81/81
f 18/18/18 25/25/25 81/81/81
