g default
v -0.405166 -0.018164 0.019097
v -0.440703 -0.075868 0.019097
v -0.43503 -0.053713 0.019097
v -0.388231 -0.117672 0.019097
v -0.428053 -0.099601 0.019097
v -0.328758 -0.028152 0.019097
v -0.284472 -0.131554 0.019097
v -0.252351 -0.038139 0.019097
v -0.176656 -0.13208 0.019097
v -0.598655 -0.034381 0.019097
v -0.783347 -0.082416 0.019097
v -0.783663 -0.064637 0.019097
v -0.602481 0.077796 0.019097
v -0.451555 0.003877 0.019097
v -0.43793 0.114639 0.019097
v -0.592699 0.17797 0.019097
v -0.788825 0.225941 0.019097
v -0.789403 0.25846 0.019097
v -0.225389 0.193948 0.019097
v -0.007393 0.224437 0.019097
v -0.044189 0.23322 0.019097
v -0.228543 0.223759 0.019097
v -0.29385 0.240342 0.019097
v -0.319291 0.144216 0.019097
v -0.39154 0.254158 0.019097
v -0.396567 0.125265 0.019097
v -0.414102 0.229013 0.019097
v -0.408716 0.245395 0.019097
v -0.405166 -0.018164 0.019097
v -0.43503 -0.053713 0.019097
v -0.440703 -0.075868 0.019097
v -0.388231 -0.117672 0.019097
v -0.428053 -0.099601 0.019097
v -0.328758 -0.028152 0.019097
v -0.284472 -0.131554 0.019097
v -0.252351 -0.038139 0.019097
v -0.176656 -0.13208 0.019097
v -0.783663 -0.064637 0.019097
v -0.783347 -0.082416 0.019097
v -0.598655 -0.034381 0.019097
v -0.602481 0.077796 0.019097
v -0.451555 0.003877 0.019097
v -0.43793 0.114639 0.019097
v -0.592699 0.17797 0.019097
v -0.788825 0.225941 0.019097
v -0.789403 0.25846 0.019097
v -0.225389 0.193948 0.019097
v -0.044189 0.23322 0.019097
v -0.007393 0.224437 0.019097
v -0.228543 0.223759 0.019097
v -0.29385 0.240342 0.019097
v -0.319291 0.144216 0.019097
v -0.39154 0.254158 0.019097
v -0.396567 0.125265 0.019097
v -0.414102 0.229013 0.019097
v -0.408716 0.245395 0.019097
v -0.494366 0.067741 0.012014
v -0.43943 0.113328 0.019097
v -0.506662 0.076768 0.019097
v -0.512643 0.032449 0.019097
v -0.420462 0.086523 0.004472
v -0.322859 0.142348 0.019097
v -0.499711 0.036961 0.012014
v -0.455877 -0.004257 0.019097
v -0.427811 0.045691 0.004472
v -0.43516 0.004858 0.004472
v -0.321364 -0.044016 0.019097
v -0.303066 0.106679 -0.007209
v -0.234834 0.192084 0.019097
v -0.301532 0.041962 -0.020188
v -0.301729 -0.022756 -0.007209
v -0.243805 -0.110906 0.019097
v -0.212382 0.141222 -0.028024
v -0.049441 0.227862 0.019097
v -0.218986 0.036005 -0.047926
v -0.220399 -0.069212 -0.028024
v -0.160087 -0.133441 0.019097
v -0.145582 -0.084864 -0.051698
v -0.098737 0.040603 -0.077657
v 0.062804 -0.113044 -0.059174
v 0.073092 -0.174016 0.019097
v -0.046701 0.16607 -0.051698
v 0.048106 0.172159 -0.059174
v 0.056645 0.236629 0.019097
v 0.055455 0.029558 -0.084723
v 0.186594 0.138929 -0.040484
v 0.21161 0.188783 0.019097
v 0.181249 -0.104736 -0.040484
v 0.205629 -0.162054 0.019097
v 0.183922 0.017096 -0.066033
v 0.262772 0.106954 -0.029026
v 0.29685 0.142745 0.019097
v 0.250746 -0.086864 -0.029026
v 0.283393 -0.136322 0.019097
v 0.376099 0.036803 -0.016006
v 0.399568 0.041738 0.019097
v 0.258762 0.010045 -0.052145
v 0.369418 -0.042786 -0.016006
v 0.392091 -0.072856 0.019097
v 0.401634 0.002819 -0.010498
v 0.428141 -0.007192 0.019097
v 0.372759 -0.002992 -0.025011
v 0.400298 -0.018616 -0.010498
v 0.426645 -0.038055 0.019097
v -0.43943 0.113328 0.019097
v -0.494366 0.067741 0.02618
v -0.506662 0.076768 0.019097
v -0.512643 0.032449 0.019097
v -0.420462 0.086523 0.033722
v -0.322859 0.142348 0.019097
v -0.499711 0.036961 0.02618
v -0.455877 -0.004257 0.019097
v -0.427811 0.045691 0.033722
v -0.43516 0.004858 0.033722
v -0.321364 -0.044016 0.019097
v -0.303066 0.106679 0.045404
v -0.234834 0.192084 0.019097
v -0.301532 0.041962 0.058383
v -0.301729 -0.022756 0.045404
v -0.243805 -0.110906 0.019097
v -0.212382 0.141222 0.066219
v -0.049441 0.227862 0.019097
v -0.218986 0.036005 0.08612
v -0.220399 -0.069212 0.066219
v -0.160087 -0.133441 0.019097
v -0.145582 -0.084864 0.089893
v -0.098737 0.040603 0.115851
v 0.062804 -0.113044 0.097369
v 0.073092 -0.174016 0.019097
v -0.046701 0.16607 0.089893
v 0.048106 0.172159 0.097369
v 0.056645 0.236629 0.019097
v 0.055455 0.029558 0.122918
v 0.186594 0.138929 0.078679
v 0.21161 0.188783 0.019097
v 0.181249 -0.104736 0.078679
v 0.205629 -0.162054 0.019097
v 0.183922 0.017096 0.104228
v 0.262772 0.106954 0.06722
v 0.29685 0.142745 0.019097
v 0.250746 -0.086864 0.06722
v 0.283393 -0.136322 0.019097
v 0.376099 0.036803 0.054201
v 0.399568 0.041738 0.019097
v 0.258762 0.010045 0.090339
v 0.369418 -0.042786 0.054201
v 0.392091 -0.072856 0.019097
v 0.401634 0.002819 0.048693
v 0.428141 -0.007192 0.019097
v 0.372759 -0.002992 0.063205
v 0.400298 -0.018616 0.048693
v 0.426645 -0.038055 0.019097
vt 0.327744 0.149001
vt 0.29999 0.103936
vt 0.30442 0.121238
vt 0.340969 0.071288
vt 0.309869 0.085401
vt 0.387416 0.141201
vt 0.422003 0.060446
vt 0.447089 0.133401
vt 0.506205 0.060035
vt 0.176633 0.136337
vt 0.032392 0.098822
vt 0.032145 0.112707
vt 0.173645 0.223944
vt 0.291514 0.166215
vt 0.302155 0.252718
vt 0.181284 0.302178
vt 0.028114 0.339642
vt 0.027662 0.365039
vt 0.468145 0.31128
vt 0.638396 0.335091
vt 0.609659 0.34195
vt 0.465682 0.334561
vt 0.414679 0.347512
vt 0.39481 0.27244
vt 0.338385 0.358303
vt 0.334459 0.257639
vt 0.320765 0.338664
vt 0.324971 0.351459
vt 0.327744 0.149001
vt 0.30442 0.121238
vt 0.29999 0.103936
vt 0.340969 0.071288
vt 0.309869 0.085401
vt 0.387416 0.141201
vt 0.422003 0.060446
vt 0.447089 0.133401
vt 0.506205 0.060035
vt 0.032145 0.112707
vt 0.032392 0.098822
vt 0.176633 0.136337
vt 0.173645 0.223944
vt 0.291514 0.166215
vt 0.302155 0.252718
vt 0.181284 0.302178
vt 0.028114 0.339642
vt 0.027662 0.365039
vt 0.468145 0.31128
vt 0.609659 0.34195
vt 0.638396 0.335091
vt 0.465682 0.334561
vt 0.414679 0.347512
vt 0.39481 0.27244
vt 0.338385 0.358303
vt 0.334459 0.257639
vt 0.320765 0.338664
vt 0.324971 0.351459
vt 0.25808 0.216092
vt 0.300984 0.251694
vt 0.248477 0.223141
vt 0.243807 0.188529
vt 0.315798 0.23076
vt 0.392023 0.274358
vt 0.253906 0.192052
vt 0.288139 0.159863
vt 0.310058 0.198871
vt 0.304319 0.166981
vt 0.393191 0.128812
vt 0.407482 0.246501
vt 0.460769 0.313201
vt 0.408679 0.195958
vt 0.408525 0.145415
vt 0.453763 0.076572
vt 0.478304 0.273478
vt 0.605557 0.341143
vt 0.473146 0.191306
vt 0.472043 0.109134
vt 0.519145 0.058972
vt 0.530473 0.09691
vt 0.567058 0.194897
vt 0.693218 0.074902
vt 0.701253 0.027284
vt 0.607697 0.292884
vt 0.680964 0.290664
vt 0.687633 0.341014
vt 0.687479 0.186271
vt 0.790671 0.266262
vt 0.810207 0.305197
vt 0.785721 0.08139
vt 0.804761 0.036626
vt 0.787809 0.176539
vt 0.850164 0.241291
vt 0.876778 0.269242
vt 0.839997 0.095348
vt 0.865494 0.056722
vt 0.936345 0.191154
vt 0.954673 0.195009
vt 0.846257 0.171032
vt 0.932678 0.129772
vt 0.950385 0.106288
vt 0.957838 0.165389
vt 0.978538 0.15757
vt 0.935286 0.160851
vt 0.956794 0.148649
vt 0.977371 0.133467
vt 0.300984 0.251694
vt 0.25808 0.216092
vt 0.248477 0.223141
vt 0.243807 0.188529
vt 0.315798 0.23076
vt 0.392023 0.274358
vt 0.253906 0.192052
vt 0.288139 0.159863
vt 0.310058 0.198871
vt 0.304319 0.166981
vt 0.393191 0.128812
vt 0.407482 0.246501
vt 0.460769 0.313201
vt 0.408679 0.195958
vt 0.408525 0.145415
vt 0.453763 0.076572
vt 0.478304 0.273478
vt 0.605557 0.341143
vt 0.473146 0.191306
vt 0.472043 0.109134
vt 0.519145 0.058972
vt 0.530473 0.09691
vt 0.567058 0.194897
vt 0.693218 0.074902
vt 0.701253 0.027284
vt 0.607697 0.292884
vt 0.680964 0.290664
vt 0.687633 0.341014
vt 0.687479 0.186271
vt 0.790671 0.266262
vt 0.810207 0.305197
vt 0.785721 0.08139
vt 0.804761 0.036626
vt 0.787809 0.176539
vt 0.850164 0.241291
vt 0.876778 0.269242
vt 0.839997 0.095348
vt 0.865494 0.056722
vt 0.936345 0.191154
vt 0.954673 0.195009
vt 0.846257 0.171032
vt 0.932678 0.129772
vt 0.950385 0.106288
vt 0.957838 0.165389
vt 0.978538 0.15757
vt 0.935286 0.160851
vt 0.956794 0.148649
vt 0.977371 0.133467
vn 0 0 1
vn 0 0 1
vn 0 0 1
vn 0 0 1
vn 0 0 1
vn 0 0 1
vn 0 0 1
vn 0 0 1
vn 0 0 1
vn 0 0 1
vn 0 0 1
vn 0 0 1
vn 0 0 1
vn 0 0 1
vn 0 0 1
vn 0 0 1
vn 0 0 1
vn 0 0 1
vn 0 0 -1
vn 0 0 -1
vn 0 0 -1
vn 0 0 -1
vn 0 0 -1
vn 0 0 -1
vn 0 0 -1
vn 0 0 -1
vn 0 0 -1
vn 0 0 -1
vn 0 0 -1
vn 0 0 -1
vn 0 0 -1
vn 0 0 -1
vn 0 0 -1
vn 0 0 -1
vn 0 0 -1
vn 0 0 -1
vn 0 0 -1
vn 0 0 -1
vn 0 0 -1
vn 0 0 -1
vn 0 0 -1
vn 0 0 -1
vn 0 0 -1
vn 0 0 -1
vn 0 0 -1
vn 0 0 -1
vn 0 0 1
vn 0 0 1
vn 0 0 1
vn 0 0 1
vn 0 0 1
vn 0 0 1
vn 0 0 1
vn 0 0 1
vn 0 0 1
vn 0 0 1
vn -0.2677968 0.1736979 -0.9476888
vn -0.3662123 0.9305313 0
vn -0.8201892 0.5720924 0
vn -0.9203921 -0.3909966 0
vn -0.1489079 0.2429129 -0.9585509
vn -0.3954877 0.9184713 0
vn -0.3249899 -0.1466954 -0.9342709
vn -0.4738911 -0.8805835 0
vn -0.1487032 0.02670057 -0.9885213
vn -0.208202 -0.3638036 -0.907909
vn -0.4545982 -0.8906966 0
vn -0.2419157 0.3482226 -0.9056587
vn -0.3809912 0.9245787 0
vn -0.2345027 0.002900033 -0.9721112
vn -0.3109929 -0.3821913 -0.8701801
vn -0.4786139 -0.8780255 0
vn -0.2513085 0.4376148 -0.8633292
vn -0.1735058 0.9848328 0
vn -0.2886159 0.01330073 -0.9573526
vn -0.3580972 -0.4455966 -0.8204937
vn -0.2581046 -0.966117 0
vn -0.2184963 -0.4981914 -0.8390856
vn -0.1327045 0.04500152 -0.9901335
vn 0.0221011 -0.5288264 -0.8484423
vn 0.001299999 -0.9999992 0
vn -0.1315002 0.5086008 -0.8509012
vn 0.06370082 0.5105066 -0.857511
vn 0.1230008 0.9924065 0
vn 0.04700151 0.01120036 -0.998832
vn 0.2547992 0.4650986 -0.8477975
vn 0.3975008 0.9176019 0
vn 0.1880012 -0.4805029 -0.8566052
vn 0.2366017 -0.9716068 0
vn 0.1762094 -0.0004000214 -0.9843526
vn 0.3171988 0.4255984 -0.8474969
vn 0.5613058 0.8276085 0
vn 0.2350001 -0.4290002 -0.8722005
vn 0.4025073 -0.9154167 0
vn 0.4983298 0.4073244 -0.7653458
vn 0.7954409 0.6060311 0
vn 0.2033093 -0.01170054 -0.9790447
vn 0.3383094 -0.4052112 -0.8493236
vn 0.6156285 -0.7880365 0
vn 0.6442077 0.1883022 -0.7413088
vn 0.984621 0.1747037 0
vn 0.3145184 -0.02370139 -0.9489555
vn 0.5539314 -0.2134121 -0.8047456
vn 0.9025923 -0.4304963 0
vn -0.3662123 0.9305313 0
vn -0.2677968 0.1736979 0.9476888
vn -0.8201892 0.5720924 0
vn -0.9203921 -0.3909966 0
vn -0.1489079 0.2429129 0.9585509
vn -0.3954877 0.9184713 0
vn -0.3249899 -0.1466954 0.9342709
vn -0.4738911 -0.8805835 0
vn -0.1487032 0.02670057 0.9885213
vn -0.208202 -0.3638036 0.907909
vn -0.4545982 -0.8906966 0
vn -0.2419157 0.3482226 0.9056587
vn -0.3809912 0.9245787 0
vn -0.2345027 0.002900033 0.9721112
vn -0.3109929 -0.3821913 0.8701801
vn -0.4786139 -0.8780255 0
vn -0.2513085 0.4376148 0.8633292
vn -0.1735058 0.9848328 0
vn -0.2886159 0.01330073 0.9573526
vn -0.3580972 -0.4455966 0.8204937
vn -0.2581046 -0.966117 0
vn -0.2184963 -0.4981914 0.8390856
vn -0.1327045 0.04500152 0.9901335
vn 0.0221011 -0.5288264 0.8484423
vn 0.001299999 -0.9999992 0
vn -0.1315002 0.5086008 0.8509012
vn 0.06370082 0.5105066 0.857511
vn 0.1230008 0.9924065 0
vn 0.04700151 0.01120036 0.998832
vn 0.2547992 0.4650986 0.8477975
vn 0.3975008 0.9176019 0
vn 0.1880012 -0.4805029 0.8566052
vn 0.2366017 -0.9716068 0
vn 0.1762094 -0.0004000214 0.9843526
vn 0.3171988 0.4255984 0.8474969
vn 0.5613058 0.8276085 0
vn 0.2350001 -0.4290002 0.8722005
vn 0.4025073 -0.9154167 0
vn 0.4983298 0.4073244 0.7653458
vn 0.7954409 0.6060311 0
vn 0.2033093 -0.01170054 0.9790447
vn 0.3383094 -0.4052112 0.8493236
vn 0.6156285 -0.7880365 0
vn 0.6442077 0.1883022 0.7413088
vn 0.984621 0.1747037 0
vn 0.3145184 -0.02370139 0.9489555
vn 0.5539314 -0.2134121 0.8047456
vn 0.9025923 -0.4304963 0
g default_0
f 3/3/3 2/2/2 1/1/1
f 1/1/1 2/2/2 4/4/4
f 5/5/5 4/4/4 2/2/2
f 6/6/6 1/1/1 4/4/4
f 7/7/7 6/6/6 4/4/4
f 8/8/8 6/6/6 7/7/7
f 9/9/9 8/8/8 7/7/7
f 12/12/12 11/11/11 10/10/10
f 13/13/13 12/12/12 10/10/10
f 10/10/10 14/14/14 13/13/13
f 13/13/13 14/14/14 15/15/15
f 13/13/13 15/15/15 16/16/16
f 17/17/17 13/13/13 16/16/16
f 18/18/18 17/17/17 16/16/16
f 21/21/21 20/20/20 19/19/19
f 22/22/22 21/21/21 19/19/19
f 23/23/23 22/22/22 19/19/19
f 24/24/24 23/23/23 19/19/19
f 25/25/25 23/23/23 24/24/24
f 26/26/26 25/25/25 24/24/24
f 26/26/26 27/27/27 25/25/25
f 27/27/27 28/28/28 25/25/25
f 31/31/31 30/30/30 29/29/29
f 31/31/31 29/29/29 32/32/32
f 32/32/32 33/33/33 31/31/31
f 29/29/29 34/34/34 32/32/32
f 34/34/34 35/35/35 32/32/32
f 34/34/34 36/36/36 35/35/35
f 36/36/36 37/37/37 35/35/35
f 40/40/40 39/39/39 38/38/38
f 41/41/41 40/40/40 38/38/38
f 41/41/41 42/42/42 40/40/40
f 41/41/41 43/43/43 42/42/42
f 44/44/44 43/43/43 41/41/41
f 41/41/41 45/45/45 44/44/44
f 45/45/45 46/46/46 44/44/44
f 49/49/49 48/48/48 47/47/47
f 48/48/48 50/50/50 47/47/47
f 47/47/47 50/50/50 51/51/51
f 52/52/52 47/47/47 51/51/51
f 52/52/52 51/51/51 53/53/53
f 54/54/54 52/52/52 53/53/53
f 55/55/55 54/54/54 53/53/53
f 56/56/56 55/55/55 53/53/53
f 59/59/59 58/58/58 57/57/57
f 59/59/59 57/57/57 60/60/60
f 58/58/58 61/61/61 57/57/57
f 58/58/58 62/62/62 61/61/61
f 57/57/57 63/63/63 60/60/60
f 60/60/60 63/63/63 64/64/64
f 57/57/57 65/65/65 63/63/63
f 57/57/57 61/61/61 65/65/65
f 63/63/63 66/66/66 64/64/64
f 65/65/65 66/66/66 63/63/63
f 64/64/64 66/66/66 67/67/67
f 62/62/62 68/68/68 61/61/61
f 62/62/62 69/69/69 68/68/68
f 65/65/65 61/61/61 70/70/70
f 65/65/65 70/70/70 66/66/66
f 61/61/61 68/68/68 70/70/70
f 66/66/66 71/71/71 67/67/67
f 70/70/70 71/71/71 66/66/66
f 67/67/67 71/71/71 72/72/72
f 69/69/69 73/73/73 68/68/68
f 69/69/69 74/74/74 73/73/73
f 70/70/70 68/68/68 75/75/75
f 70/70/70 75/75/75 71/71/71
f 68/68/68 73/73/73 75/75/75
f 71/71/71 76/76/76 72/72/72
f 75/75/75 76/76/76 71/71/71
f 72/72/72 76/76/76 77/77/77
f 76/76/76 75/75/75 78/78/78
f 76/76/76 78/78/78 77/77/77
f 75/75/75 73/73/73 79/79/79
f 75/75/75 79/79/79 78/78/78
f 78/78/78 80/80/80 77/77/77
f 78/78/78 79/79/79 80/80/80
f 80/80/80 81/81/81 77/77/77
f 74/74/74 82/82/82 73/73/73
f 73/73/73 82/82/82 79/79/79
f 82/82/82 74/74/74 83/83/83
f 74/74/74 84/84/84 83/83/83
f 79/79/79 82/82/82 85/85/85
f 82/82/82 83/83/83 85/85/85
f 79/79/79 85/85/85 80/80/80
f 83/83/83 84/84/84 86/86/86
f 83/83/83 86/86/86 85/85/85
f 84/84/84 87/87/87 86/86/86
f 80/80/80 88/88/88 81/81/81
f 88/88/88 89/89/89 81/81/81
f 85/85/85 90/90/90 80/80/80
f 86/86/86 90/90/90 85/85/85
f 90/90/90 88/88/88 80/80/80
f 91/91/91 86/86/86 87/87/87
f 90/90/90 86/86/86 91/91/91
f 92/92/92 91/91/91 87/87/87
f 89/89/89 88/88/88 93/93/93
f 93/93/93 88/88/88 90/90/90
f 94/94/94 89/89/89 93/93/93
f 95/95/95 91/91/91 92/92/92
f 96/96/96 95/95/95 92/92/92
f 97/97/97 90/90/90 91/91/91
f 97/97/97 93/93/93 90/90/90
f 97/97/97 91/91/91 95/95/95
f 94/94/94 93/93/93 98/98/98
f 98/98/98 93/93/93 97/97/97
f 99/99/99 94/94/94 98/98/98
f 100/100/100 95/95/95 96/96/96
f 101/101/101 100/100/100 96/96/96
f 102/102/102 97/97/97 95/95/95
f 102/102/102 98/98/98 97/97/97
f 100/100/100 102/102/102 95/95/95
f 99/99/99 98/98/98 103/103/103
f 98/98/98 102/102/102 103/103/103
f 100/100/100 103/103/103 102/102/102
f 100/100/100 101/101/101 103/103/103
f 104/104/104 99/99/99 103/103/103
f 101/101/101 104/104/104 103/103/103
f 107/107/107 106/106/106 105/105/105
f 107/107/107 108/108/108 106/106/106
f 106/106/106 109/109/109 105/105/105
f 105/105/105 109/109/109 110/110/110
f 108/108/108 111/111/111 106/106/106
f 111/111/111 108/108/108 112/112/112
f 106/106/106 111/111/111 113/113/113
f 109/109/109 106/106/106 113/113/113
f 114/114/114 111/111/111 112/112/112
f 111/111/111 114/114/114 113/113/113
f 114/114/114 112/112/112 115/115/115
f 109/109/109 116/116/116 110/110/110
f 110/110/110 116/116/116 117/117/117
f 109/109/109 113/113/113 118/118/118
f 113/113/113 114/114/114 118/118/118
f 116/116/116 109/109/109 118/118/118
f 119/119/119 114/114/114 115/115/115
f 114/114/114 119/119/119 118/118/118
f 119/119/119 115/115/115 120/120/120
f 116/116/116 121/121/121 117/117/117
f 117/117/117 121/121/121 122/122/122
f 116/116/116 118/118/118 123/123/123
f 118/118/118 119/119/119 123/123/123
f 121/121/121 116/116/116 123/123/123
f 124/124/124 119/119/119 120/120/120
f 119/119/119 124/124/124 123/123/123
f 124/124/124 120/120/120 125/125/125
f 123/123/123 124/124/124 126/126/126
f 126/126/126 124/124/124 125/125/125
f 121/121/121 123/123/123 127/127/127
f 127/127/127 123/123/123 126/126/126
f 126/126/126 125/125/125 128/128/128
f 127/127/127 126/126/126 128/128/128
f 125/125/125 129/129/129 128/128/128
f 121/121/121 130/130/130 122/122/122
f 130/130/130 121/121/121 127/127/127
f 122/122/122 130/130/130 131/131/131
f 132/132/132 122/122/122 131/131/131
f 130/130/130 127/127/127 133/133/133
f 131/131/131 130/130/130 133/133/133
f 133/133/133 127/127/127 128/128/128
f 131/131/131 134/134/134 132/132/132
f 131/131/131 133/133/133 134/134/134
f 134/134/134 135/135/135 132/132/132
f 136/136/136 128/128/128 129/129/129
f 137/137/137 136/136/136 129/129/129
f 133/133/133 128/128/128 138/138/138
f 133/133/133 138/138/138 134/134/134
f 128/128/128 136/136/136 138/138/138
f 134/134/134 139/139/139 135/135/135
f 139/139/139 134/134/134 138/138/138
f 139/139/139 140/140/140 135/135/135
f 141/141/141 136/136/136 137/137/137
f 136/136/136 141/141/141 138/138/138
f 142/142/142 141/141/141 137/137/137
f 139/139/139 143/143/143 140/140/140
f 143/143/143 144/144/144 140/140/140
f 145/145/145 139/139/139 138/138/138
f 141/141/141 145/145/145 138/138/138
f 143/143/143 139/139/139 145/145/145
f 146/146/146 141/141/141 142/142/142
f 141/141/141 146/146/146 145/145/145
f 147/147/147 146/146/146 142/142/142
f 143/143/143 148/148/148 144/144/144
f 148/148/148 149/149/149 144/144/144
f 150/150/150 143/143/143 145/145/145
f 146/146/146 150/150/150 145/145/145
f 150/150/150 148/148/148 143/143/143
f 151/151/151 146/146/146 147/147/147
f 150/150/150 146/146/146 151/151/151
f 151/151/151 148/148/148 150/150/150
f 148/148/148 151/151/151 149/149/149
f 152/152/152 151/151/151 147/147/147
f 151/151/151 152/152/152 149/149/149
