g WS_Platform_Cross
v -0.1303838 1.338776E-09 0.03789949
v -0.1530057 1.338776E-09 0.03789949
v -0.1530059 -1.164153E-10 -4.254184E-05
v -0.1303838 -1.164153E-10 1.089764E-06
v -0.03798001 -5.820766E-11 0.0001897754
v -0.03798001 1.338776E-09 0.03789949
v 0.0001045388 -5.820766E-11 0.0002519185
v 0.1303315 -1.513399E-09 -0.03799427
v 0.1529593 -1.513399E-09 -0.03799427
v 0.1529595 -5.820766E-11 0.0002036963
v 0.1303315 -5.820766E-11 0.0002108615
v 0.03793596 -5.820766E-11 0.0002417955
v 0.03793596 -1.513399E-09 -0.03799427
v 0.0001045388 -5.820766E-11 0.0002519185
v 0.03793596 5.704351E-09 0.1311015
v 0.03793596 6.635673E-09 0.1529637
v 7.365891E-05 6.635673E-09 0.1529639
v 7.819748E-05 5.704351E-09 0.1311015
v 9.810562E-05 1.338776E-09 0.03789949
v 0.03793596 1.338776E-09 0.03789949
v 0.0001045388 -5.820766E-11 0.0002519185
v -0.03798001 -1.513399E-09 -0.03799427
v 0.0001045388 -5.820766E-11 0.0002519185
v -0.03798001 -5.820766E-11 0.0001897754
v -0.1303838 -1.513399E-09 -0.03799427
v -0.1303838 -1.164153E-10 1.089764E-06
v -0.1530059 -1.164153E-10 -4.254184E-05
v -0.153006 -1.513399E-09 -0.03799427
v -0.03798001 1.338776E-09 0.03789949
v 0.0001045388 -5.820766E-11 0.0002519185
v 9.810562E-05 1.338776E-09 0.03789949
v -0.03798001 5.704351E-09 0.1311015
v 7.819748E-05 5.704351E-09 0.1311015
v 7.365891E-05 6.635673E-09 0.1529639
v -0.03798001 6.635673E-09 0.152964
v 0.03793596 -1.513399E-09 -0.03799427
v 0.0001045388 -5.820766E-11 0.0002519185
v 9.802116E-05 -1.513399E-09 -0.03799427
v 0.03793596 -5.820766E-09 -0.1311653
v 7.816717E-05 -5.820766E-09 -0.1311653
v 7.36481E-05 -6.810296E-09 -0.1530312
v 0.03793596 -6.810296E-09 -0.1530313
v 0.03793596 1.338776E-09 0.03789949
v 0.0001045388 -5.820766E-11 0.0002519185
v 0.03793596 -5.820766E-11 0.0002417955
v 0.1303315 1.338776E-09 0.03789949
v 0.1303315 -5.820766E-11 0.0002108615
v 0.1529595 -5.820766E-11 0.0002036963
v 0.1529596 1.338776E-09 0.03789949
v 0.0001045388 -5.820766E-11 0.0002519185
v -0.03798001 -1.513399E-09 -0.03799427
v 9.802116E-05 -1.513399E-09 -0.03799427
v -0.03798001 -5.820766E-09 -0.1311653
v 7.816717E-05 -5.820766E-09 -0.1311653
v 7.36481E-05 -6.810296E-09 -0.1530312
v -0.03798001 -6.810296E-09 -0.1530311
v 0.03793596 -6.810296E-09 -0.1530313
vt 0.6694417 0.00527034
vt 0.6862442 0.00527034
vt 0.6862442 0.4908017
vt 0.6694417 0.4908017
vt 0.6330819 0.4908017
vt 0.6330819 0.00527034
vt 0.6300998 0.4908017
vt 0.6694417 0.00527034
vt 0.6862442 0.00527034
vt 0.6862442 0.4908017
vt 0.6694417 0.4908017
vt 0.6330819 0.4908017
vt 0.6330819 0.00527034
vt 0.6300998 0.4908017
vt 0.6694417 0.00527034
vt 0.6862442 0.00527034
vt 0.6862442 0.4908017
vt 0.6694417 0.4908017
vt 0.6330819 0.4908017
vt 0.6330819 0.00527034
vt 0.6300998 0.4908017
vt 0.6330819 0.00527034
vt 0.6300998 0.4908017
vt 0.6330819 0.4908017
vt 0.6694417 0.00527034
vt 0.6694417 0.4908017
vt 0.6862442 0.4908017
vt 0.6862442 0.00527034
vt 0.6330819 0.00527034
vt 0.6300998 0.4908017
vt 0.6330819 0.4908017
vt 0.6694417 0.00527034
vt 0.6694417 0.4908017
vt 0.6862442 0.4908017
vt 0.6862442 0.00527034
vt 0.6330819 0.00527034
vt 0.6300998 0.4908017
vt 0.6330819 0.4908017
vt 0.6694417 0.00527034
vt 0.6694417 0.4908017
vt 0.6862442 0.4908017
vt 0.6862442 0.00527034
vt 0.6330819 0.00527034
vt 0.6300998 0.4908017
vt 0.6330819 0.4908017
vt 0.6694417 0.00527034
vt 0.6694417 0.4908017
vt 0.6862442 0.4908017
vt 0.6862442 0.00527034
vt 0.6300998 0.4908017
vt 0.6330819 0.00527034
vt 0.6330819 0.4908017
vt 0.6694417 0.00527034
vt 0.6694417 0.4908017
vt 0.6862442 0.4908017
vt 0.6862442 0.00527034
vt 0.6862442 0.00527034
vn 0 1 0
vn 0 1 0
vn 0 1 0
vn 0 1 0
vn -0.0004987591 0.9999999 0.0002866049
vn 3.562064E-06 0.9999993 -0.001198494
vn 2.068933E-06 0.9999967 -0.002588705
vn 0 1 0
vn 0 1 0
vn 0 1 0
vn 0 1 0
vn 0.0004976284 0.9999999 0.0002885632
vn 0 1 0
vn 2.068933E-06 0.9999967 -0.002588705
vn 0 1 0
vn 0 1 0
vn 0 1 0
vn 0 1 0
vn 0.001150512 0.9999994 4.480664E-06
vn 3.364298E-06 0.9999994 -0.001150556
vn 2.068933E-06 0.9999967 -0.002588705
vn 0 1 0
vn 2.068933E-06 0.9999967 -0.002588705
vn -0.0004987591 0.9999999 0.0002866049
vn 0 1 0
vn 0 1 0
vn 0 1 0
vn 0 1 0
vn 3.562064E-06 0.9999993 -0.001198494
vn 2.068933E-06 0.9999967 -0.002588705
vn 0.001150512 0.9999994 4.480664E-06
vn 0 1 0
vn 0 1 0
vn 0 1 0
vn 0 1 0
vn 0 1 0
vn 2.068933E-06 0.9999967 -0.002588705
vn 0 1 0
vn 0 1 0
vn 0 1 0
vn 0 1 0
vn 0 1 0
vn 3.364298E-06 0.9999994 -0.001150556
vn 2.068933E-06 0.9999967 -0.002588705
vn 0.0004976284 0.9999999 0.0002885632
vn 0 1 0
vn 0 1 0
vn 0 1 0
vn 0 1 0
vn 2.068933E-06 0.9999967 -0.002588705
vn 0 1 0
vn 0 1 0
vn 0 1 0
vn 0 1 0
vn 0 1 0
vn 0 1 0
vn 0 1 0
g WS_Platform_Cross_0
f 3/3/3 2/2/2 1/1/1
f 4/4/4 3/3/3 1/1/1
f 4/4/4 1/1/1 5/5/5
f 1/1/1 6/6/6 5/5/5
f 5/5/5 6/6/6 7/7/7
f 10/10/10 9/9/9 8/8/8
f 11/11/11 10/10/10 8/8/8
f 11/11/11 8/8/8 12/12/12
f 8/8/8 13/13/13 12/12/12
f 12/12/12 13/13/13 14/14/14
f 17/17/17 16/16/16 15/15/15
f 18/18/18 17/17/17 15/15/15
f 18/18/18 15/15/15 19/19/19
f 15/15/15 20/20/20 19/19/19
f 19/19/19 20/20/20 21/21/21
f 24/24/24 23/23/23 22/22/22
f 24/24/24 22/22/22 25/25/25
f 26/26/26 24/24/24 25/25/25
f 26/26/26 25/25/25 27/27/27
f 25/25/25 28/28/28 27/27/27
f 31/31/31 30/30/30 29/29/29
f 31/31/31 29/29/29 32/32/32
f 33/33/33 31/31/31 32/32/32
f 33/33/33 32/32/32 34/34/34
f 32/32/32 35/35/35 34/34/34
f 38/38/38 37/37/37 36/36/36
f 38/38/38 36/36/36 39/39/39
f 40/40/40 38/38/38 39/39/39
f 40/40/40 39/39/39 41/41/41
f 39/39/39 42/42/42 41/41/41
f 45/45/45 44/44/44 43/43/43
f 45/45/45 43/43/43 46/46/46
f 47/47/47 45/45/45 46/46/46
f 47/47/47 46/46/46 48/48/48
f 46/46/46 49/49/49 48/48/48
f 52/52/52 51/51/51 50/50/50
f 53/53/53 51/51/51 52/52/52
f 54/54/54 53/53/53 52/52/52
f 54/54/54 55/55/55 53/53/53
f 55/55/55 56/56/56 53/53/53
f 57/57/57 56/56/56 55/55/55
